# xmcd
#
# Track frame offsets: 
#        225
#        10592
#        30962
#        40400
#        48089
#        61239
#        74490
#        103091
#        115425
#        118514
#        129828
#        140024
#        143753
#        154357
#        162836
#        179606
#        195730
#        210153
#        226067
#        239292
#        249656
#        265822
#        279652
#        293153
#        308063
#
# Disc length: 4364 seconds
#
# Revision: 0
# Processed by: cddbd v1.5.1PL0 Copyright (c) Steve Scherf et al.
# Submitted via: ExactAudioCopy v0.95a5
#
DISCID=63110919
DTITLE=Beatles - Complete Edition CD 9
DYEAR=1968
DGENRE=Oldies
TTITLE0=Glass Onion
TTITLE1=Helter Skelter
TTITLE2=Piggies
TTITLE3=Why don´t we do it in the road
TTITLE4=Julia
TTITLE5=Savoy Truffle
TTITLE6=It´s all too much
TTITLE7=Happiness is a warm gun
TTITLE8=Maggie Mae
TTITLE9=For you blue
TTITLE10=Blue Suede Shoes
TTITLE11=Dig it
TTITLE12=Love me do
TTITLE13=Mailman, bring me no more blues
TTITLE14=Dig a pony
TTITLE15=Don´t let me down
TTITLE16=Get Back
TTITLE17=I´ve got a feeling
TTITLE18=One after 909
TTITLE19=Lady Madonna
TTITLE20=Two of us
TTITLE21=All things must pass
TTITLE22=The ballad of John and Yoko
TTITLE23=Old brown shoe
TTITLE24=You know my name (look up the numbers)
EXTD=
EXTT0=
EXTT1=
EXTT2=
EXTT3=
EXTT4=
EXTT5=
EXTT6=
EXTT7=
EXTT8=
EXTT9=
EXTT10=
EXTT11=
EXTT12=
EXTT13=
EXTT14=
EXTT15=
EXTT16=
EXTT17=
EXTT18=
EXTT19=
EXTT20=
EXTT21=
EXTT22=
EXTT23=
EXTT24=
PLAYORDER=
